<?xml version="1.0"?>
<svg xmlns="http://www.w3.org/2000/svg" xmlns:xlink="http://www.w3.org/1999/xlink" version="1.1" viewBox="0 0 172 172" width="50px" height="50px"><g fill="none" fill-rule="nonzero" stroke="none" stroke-width="1" stroke-linecap="butt" stroke-linejoin="miter" stroke-miterlimit="10" stroke-dasharray="" stroke-dashoffset="0" font-family="none" font-weight="none" font-size="none" text-anchor="none" style="mix-blend-mode: normal"><path d="M0,172v-172h172v172z" fill="none"/><g fill="#dddddd"><g id="surface1"><path d="M86,6.88c-43.65844,0 -79.12,35.46156 -79.12,79.12c0,43.65844 35.46156,79.12 79.12,79.12c43.65844,0 79.12,-35.46156 79.12,-79.12c0,-43.65844 -35.46156,-79.12 -79.12,-79.12zM86,13.76c39.93625,0 72.24,32.30375 72.24,72.24c0,34.74938 -24.41594,63.69375 -57.0825,70.6275c-0.83312,-1.29 -1.81406,-2.80844 -3.01,-4.515c-2.48594,-3.56094 -4.24625,-6.35594 -5.2675,-8.4925c6.50375,2.64719 10.87094,3.9775 13.115,3.9775c1.62594,0 2.4725,-2.53969 2.4725,-7.6325c0,-9.46 -0.95406,-14.19 -2.6875,-14.19c-2.53969,0 -7.40406,2.78156 -14.7275,8.385c0,-1.42437 -0.73906,-2.02906 -2.2575,-1.8275h-0.86c-2.64719,-7.01437 -3.87,-13.31656 -3.87,-18.8125c0,-1.53187 0.12094,-2.98312 0.43,-4.515c9.3525,4.58219 16.8775,6.7725 22.575,6.7725c3.15781,0 7.94156,-0.86 14.2975,-2.6875c6.35594,-1.8275 9.46,-3.77594 9.46,-5.9125c0,-1.31687 -0.84656,-2.0425 -2.58,-2.0425c-2.64719,0 -6.40969,0.36281 -11.395,1.075c-4.98531,0.71219 -8.85531,1.075 -11.5025,1.075c-2.74125,0 -5.72437,-0.72562 -9.03,-2.15c-3.30562,-1.42437 -4.945,-3.35937 -4.945,-5.805c0,-0.51062 0.05375,-0.92719 0.215,-1.1825c0.16125,-0.24187 0.33594,-0.37625 0.645,-0.43c0.30906,-0.05375 0.65844,-0.05375 0.9675,0c0.30906,0.05375 0.67188,0.16125 1.1825,0.215c0.51063,0.05375 0.99438,0 1.3975,0c0.91375,0 2.24406,0.17469 3.9775,0.43c1.73344,0.25531 2.94281,0.3225 3.7625,0.3225c3.15781,0 9.58094,-1.77375 19.35,-5.4825c9.76906,-3.70875 14.7275,-6.67844 14.7275,-8.7075c0,-1.22281 -1.02125,-2.06937 -2.9025,-2.58c-1.88125,-0.51062 -3.53406,-0.7525 -5.16,-0.7525c-1.42437,0 -3.60125,0.41656 -6.45,1.1825c-2.84875,0.76594 -5.99312,1.62594 -9.3525,2.6875c-3.35937,1.06156 -5.54969,1.84094 -6.665,2.15c0.40313,-2.02906 0.645,-3.72219 0.645,-4.945c0,-4.78375 -1.33031,-10.30656 -3.87,-16.6625c-2.53969,-6.35594 -5.45562,-11.13969 -8.815,-14.19c-2.74125,-2.44562 -6.49031,-4.03125 -11.0725,-4.945c-2.84875,-3.66844 -7.28312,-7.00094 -13.33,-9.9975c-6.04687,-2.99656 -11.34125,-4.515 -16.0175,-4.515c-0.91375,0 -2.31125,0.18813 -4.1925,0.5375c-1.88125,0.34938 -3.14437,0.5375 -3.655,0.645l-3.3325,4.73l0.86,0.215c0.71219,0 1.85438,-0.12094 3.3325,-0.3225c1.47813,-0.20156 2.62031,-0.3225 3.3325,-0.3225c3.45344,0 7.35031,0.72563 11.825,2.15c-2.84875,1.42438 -5.28094,2.39188 -7.4175,2.9025c-0.20156,0.1075 -0.92719,0.17469 -2.0425,0.3225c-1.11531,0.14781 -2.02906,0.38969 -2.795,0.5375c-0.76594,0.14781 -1.49156,0.40313 -2.15,0.86c-0.65844,0.45688 -0.9675,1.00781 -0.9675,1.72c5.6975,-0.60469 9.94375,-0.86 12.7925,-0.86c3.87,0 6.90688,0.36281 9.1375,1.075c-7.83406,0.91375 -13.84062,3.58781 -18.06,8.0625c-4.21937,4.47469 -6.3425,10.65594 -6.3425,18.49c0,2.74125 0.24188,5.29438 0.645,7.6325c1.935,12.20125 5.57656,30.39563 11.0725,54.61c2.43219,11.36813 3.19813,14.835 4.085,18.8125c-27.45281,-10.22594 -46.9775,-36.67094 -46.9775,-67.725c0,-39.93625 32.30375,-72.24 72.24,-72.24zM95.5675,59.985c2.53969,0 4.35375,1.08844 5.375,3.3325c-2.02906,-1.02125 -3.72219,-1.505 -5.0525,-1.505c-2.94281,0 -4.77031,0.61813 -5.59,1.935c0.40313,-2.53969 2.12313,-3.7625 5.2675,-3.7625zM60.845,61.8125c1.935,0 3.38625,0.71219 4.4075,2.0425c-1.22281,-0.51062 -2.20375,-0.86 -3.01,-0.86c-1.73344,0 -3.655,0.60469 -5.59,1.8275c-1.935,1.22281 -2.78156,2.67406 -2.6875,4.3c-0.30906,-0.60469 -0.43,-1.22281 -0.43,-1.8275c0,-1.73344 0.77938,-3.01 2.365,-3.9775c1.57219,-0.9675 3.21156,-1.505 4.945,-1.505zM98.255,71.2725c1.22281,0 2.2575,0.43 3.1175,1.29c0.86,0.86 1.29,1.89469 1.29,3.1175c0,1.11531 -0.43,2.20375 -1.29,3.1175c-0.86,0.91375 -1.89469,1.29 -3.1175,1.29c-1.11531,0 -2.20375,-0.37625 -3.1175,-1.29c-0.91375,-0.91375 -1.3975,-2.00219 -1.3975,-3.1175c0,-1.22281 0.48375,-2.2575 1.3975,-3.1175c0.91375,-0.86 2.00219,-1.29 3.1175,-1.29zM100.19,73.1c-0.71219,0 -1.075,0.36281 -1.075,1.075c0,0.81969 0.36281,1.1825 1.075,1.1825c0.81969,0 1.1825,-0.36281 1.1825,-1.1825c0,-0.71219 -0.36281,-1.075 -1.1825,-1.075zM63.7475,73.53c1.31688,0 2.48594,0.5375 3.5475,1.6125c1.06156,1.075 1.6125,2.33813 1.6125,3.655c0,1.31688 -0.55094,2.48594 -1.6125,3.5475c-1.06156,1.06156 -2.23062,1.6125 -3.5475,1.6125c-1.31687,0 -2.59344,-0.5375 -3.655,-1.6125c-1.06156,-1.075 -1.505,-2.23062 -1.505,-3.5475c0,-1.31687 0.43,-2.59344 1.505,-3.655c1.075,-1.06156 2.33813,-1.6125 3.655,-1.6125zM66.005,75.68c-0.91375,0 -1.3975,0.48375 -1.3975,1.3975c0,0.81969 0.48375,1.1825 1.3975,1.1825c0.91375,0 1.3975,-0.36281 1.3975,-1.1825c0,-0.91375 -0.48375,-1.3975 -1.3975,-1.3975z"/></g></g></g></svg>
