<?xml version="1.0"?>
<svg xmlns="http://www.w3.org/2000/svg" xmlns:xlink="http://www.w3.org/1999/xlink" version="1.1" viewBox="0 0 172 172" width="48px" height="48px"><g fill="none" fill-rule="nonzero" stroke="none" stroke-width="1" stroke-linecap="butt" stroke-linejoin="miter" stroke-miterlimit="10" stroke-dasharray="" stroke-dashoffset="0" font-family="none" font-weight="none" font-size="none" text-anchor="none" style="mix-blend-mode: normal"><path d="M0,172v-172h172v172z" fill="none"/><g fill="#dddddd"><path d="M89.90583,73.3795v27.38383h39.0225c-5.10267,16.59083 -18.97017,28.466 -39.0225,28.466c-23.87933,0 -43.2365,-19.35717 -43.2365,-43.22933c0,-23.87217 19.35717,-43.22933 43.2365,-43.22933c10.73567,0 20.53967,3.9345 28.1005,10.41317l20.167,-20.167c-12.73517,-11.60283 -29.67717,-18.6835 -48.2675,-18.6835c-39.58867,0 -71.681,32.08517 -71.681,71.66667c0,39.5815 32.09233,71.66667 71.681,71.66667c60.17133,0 73.45117,-56.25833 67.553,-84.194z"/></g></g></svg>
