<?xml version="1.0"?>
<svg xmlns="http://www.w3.org/2000/svg" xmlns:xlink="http://www.w3.org/1999/xlink" version="1.1" viewBox="0 0 172 172" width="50px" height="50px"><g fill="none" fill-rule="nonzero" stroke="none" stroke-width="1" stroke-linecap="butt" stroke-linejoin="miter" stroke-miterlimit="10" stroke-dasharray="" stroke-dashoffset="0" font-family="none" font-weight="none" font-size="none" text-anchor="none" style="mix-blend-mode: normal"><path d="M0,172v-172h172v172z" fill="none"/><g fill="#dddddd"><g id="surface1"><path d="M17.2,13.76c-5.6975,0 -10.32,4.6225 -10.32,10.32c0,5.6975 4.6225,10.32 10.32,10.32c0.86,0 1.70656,-0.1075 2.52625,-0.3225l7.8475,11.78469c-0.84656,1.24969 -1.55875,2.53969 -1.85437,3.92375c0,0.01344 0.01344,0.02688 0.02687,0.04031c-1.04812,2.6875 -1.66625,5.59 -1.66625,8.65375c0,1.89469 1.54531,3.44 3.44,3.44c1.89469,0 3.44,-1.54531 3.44,-3.44c0,-1.04812 0.1075,-2.06937 0.29563,-3.06375c3.3325,3.39969 6.67844,6.79938 10.06469,10.23938c0.01344,1.08844 0.06719,2.17687 0.215,3.25187c0.12094,1.08844 0.3225,2.16344 0.55094,3.225c0,0.04031 0,0.08063 0.01344,0.1075c0.76594,3.53406 2.0425,6.94719 3.96406,10.19906c-0.72562,1.49156 -1.34375,3.39969 -1.34375,5.28094c0,7.21594 2.60688,13.71969 6.88,18.43625v8.76125c-14.20344,11.91906 -29.26687,23.44844 -41.28,29.5625c14.35125,0 28.38,-2.94281 43.72563,-11.22031c4.86437,9.76906 15.78906,21.54031 21.63437,21.54031h20.64c4.58219,0 13.08813,-7.76687 18.66469,-16.125c3.53406,9.74219 12.29531,16.125 12.29531,16.125v-13.76c0,-1.00781 0.16125,-2.0425 0.43,-3.10406c11.65031,4.75688 22.70938,6.54406 33.97,6.54406c-8.43875,-4.3 -18.43625,-11.35469 -28.54125,-19.2425c2.32469,-5.18687 4.46125,-11.19344 4.46125,-18.5975c0,-16.40719 -6.65156,-40.43344 -6.82625,-41.065c3.35938,-3.41312 6.665,-6.78594 9.98406,-10.15875c0.17469,0.99438 0.28219,2.01563 0.28219,3.06375c0,1.89469 1.54531,3.44 3.44,3.44c1.89469,0 3.44,-1.54531 3.44,-3.44c0,-3.06375 -0.61812,-5.96625 -1.66625,-8.65375c0.01344,-0.01344 0.02688,-0.02687 0.04031,-0.04031c-0.30906,-1.38406 -1.02125,-2.67406 -1.86781,-3.92375l7.8475,-11.78469c0.81969,0.20156 1.67969,0.3225 2.52625,0.3225c5.6975,0 10.32,-4.6225 10.32,-10.32c0,-5.6975 -4.6225,-10.32 -10.32,-10.32c-5.6975,0 -10.32,4.6225 -10.32,10.32c0,1.53188 0.34938,3.05031 1.02125,4.43438l-9.31219,9.28531c-1.31688,-0.77937 -2.74125,-1.3975 -4.20594,-1.935c-0.04031,-0.01344 -0.30906,-0.16125 -0.30906,-0.16125c0,0 -0.02688,0.04031 -0.04031,0.04031c-2.44562,-0.84656 -5.0525,-1.34375 -7.79375,-1.34375c-1.89469,0 -3.44,1.54531 -3.44,3.44c0,1.89469 1.54531,3.44 3.44,3.44c0.94063,0 1.85438,0.09406 2.75469,0.24188c-1.00781,1.15562 -2.16344,2.45906 -3.46687,3.92375c-7.87438,-9.07031 -20.70719,-14.48563 -33.0025,-14.48563h-8.25063c-12.29531,0 -25.12812,5.41531 -33.0025,14.48563c-1.30344,-1.46469 -2.45906,-2.76813 -3.46687,-3.92375c0.90031,-0.14781 1.81406,-0.24188 2.75469,-0.24188c1.89469,0 3.44,-1.54531 3.44,-3.44c0,-1.89469 -1.54531,-3.44 -3.44,-3.44c-2.72781,0 -5.33469,0.49719 -7.79375,1.34375l-0.04031,-0.04031c0,0 -0.25531,0.14781 -0.28219,0.16125c-1.47812,0.52406 -2.91594,1.14219 -4.23281,1.935l-9.31219,-9.28531c0.67188,-1.38406 1.02125,-2.9025 1.02125,-4.43438c0,-5.6975 -4.6225,-10.32 -10.32,-10.32zM81.87469,37.84h8.25063c10.27969,0 23.40812,5.0525 29.81781,14.63344c-7.21594,-3.88344 -18.19438,-7.75344 -33.94313,-7.75344c-15.74875,0 -26.72719,3.87 -33.94312,7.75344c6.40969,-9.58094 19.53812,-14.63344 29.81781,-14.63344zM49.16781,72.24h73.66437c-0.79281,2.84875 -2.01562,5.61688 -3.77594,8.23719l-1.41094,2.09625l1.58562,1.97531c0.77938,0.95406 1.16906,2.02906 1.16906,3.17125c0,1.075 -0.09406,2.10969 -0.24187,3.13094c-0.04031,0.26875 -0.08063,0.5375 -0.13438,0.79281c-0.14781,0.86 -0.33594,1.67969 -0.59125,2.48594c-0.08062,0.28219 -0.17469,0.56438 -0.26875,0.84656c-0.06719,0.17469 -0.14781,0.34938 -0.215,0.52406c-0.18812,0.49719 -0.38969,0.98094 -0.60469,1.45125c-0.13438,0.26875 -0.26875,0.52406 -0.41656,0.79281c-0.17469,0.3225 -0.34937,0.645 -0.5375,0.95406c-0.09406,0.14781 -0.17469,0.28219 -0.26875,0.41656c-0.14781,0.215 -0.28219,0.44344 -0.43,0.645c-0.3225,0.45688 -0.65844,0.87344 -1.00781,1.29c-0.12094,0.13438 -0.22844,0.28219 -0.34937,0.41656c-0.04031,0.04031 -0.08063,0.08062 -0.1075,0.12094c-0.55094,0.59125 -1.10188,1.14219 -1.70656,1.63938c-2.13656,1.76031 -4.6225,3.01 -7.4175,3.45344l-2.9025,0.45687v16.70281c0,1.89469 -1.54531,3.44 -3.44,3.44h-27.52c-1.89469,0 -3.44,-1.54531 -3.44,-3.44v-16.70281l-2.9025,-0.45687c-2.795,-0.44344 -5.28094,-1.69313 -7.4175,-3.45344c-0.60469,-0.49719 -1.15562,-1.04813 -1.70656,-1.63938c-0.09406,-0.1075 -0.20156,-0.215 -0.29562,-0.3225c-0.45688,-0.52406 -0.87344,-1.06156 -1.27656,-1.62594c-0.20156,-0.30906 -0.40312,-0.63156 -0.59125,-0.95406c-0.29562,-0.47031 -0.57781,-0.92719 -0.81969,-1.42437c-0.36281,-0.72563 -0.68531,-1.49156 -0.95406,-2.27094c-0.05375,-0.16125 -0.13437,-0.29562 -0.17469,-0.45687c-0.68531,-2.10969 -1.06156,-4.4075 -1.06156,-6.81281c0,-1.06156 0.76594,-2.67406 1.16906,-3.17125l1.58562,-1.97531l-1.41094,-2.10969c-1.76031,-2.62031 -2.98312,-5.375 -3.77594,-8.22375zM73.14031,79.12c-5.06594,0 -10.29313,0.16125 -12.98063,2.83531c-1.075,1.06156 -1.65281,2.41875 -1.66625,3.89687c-0.13437,4.60906 0.99438,8.17 3.37281,10.62906c2.63375,2.70094 6.00656,3.27875 8.37156,3.27875h3.07719c4.93156,0 9.245,-4.43437 9.245,-9.47344v-2.01563c0,-3.80281 -2.6875,-9.15094 -8.66719,-9.15094zM98.85969,79.12h-0.7525c-5.97969,0 -8.66719,5.34813 -8.66719,9.15094v2.01563c0,5.03906 4.31344,9.47344 9.245,9.47344h3.07719c2.365,0 5.75125,-0.57781 8.37156,-3.27875c2.39188,-2.45906 3.52063,-6.04687 3.38625,-10.54844c-0.01344,-1.51844 -0.59125,-2.9025 -1.67969,-3.9775c-2.6875,-2.67406 -7.87438,-2.86219 -12.98063,-2.83531zM86,99.76c-7.21594,0 -10.32,11.89219 -10.32,15.66813c0,2.39187 1.04813,3.61469 1.935,4.21937c2.01563,1.38406 4.16563,0.55094 5.73781,-0.05375c0.87344,-0.33594 1.88125,-0.72562 2.64719,-0.72562c0.76594,0 1.77375,0.38969 2.64719,0.72562c0.95406,0.36281 2.09625,0.80625 3.30563,0.80625c0.80625,0 1.62594,-0.20156 2.43219,-0.7525c0.88688,-0.60469 1.935,-1.8275 1.935,-4.21937c0,-4.03125 -3.5475,-15.66813 -10.32,-15.66813zM58.48,111.43719c1.10188,0.55094 2.24406,1.02125 3.44,1.38406v11.01875c0,5.68406 4.63594,10.32 10.32,10.32h3.44v6.88h6.88v-6.88h6.88v6.88h6.88v-6.88h3.44c5.68406,0 10.32,-4.63594 10.32,-10.32v-11.01875c1.19594,-0.36281 2.33813,-0.83312 3.44,-1.38406v13.73313c0,6.90687 -13.62562,21.87625 -17.3075,22.74969l-20.35781,0.01344c-3.61469,-0.77937 -17.37469,-15.89656 -17.37469,-22.76312z"/></g></g></g></svg>
